<mxfile host="app.diagrams.net" modified="2020-12-15T02:18:09.240Z" agent="5.0 (Macintosh; Intel Mac OS X 10_15_7) AppleWebKit/537.36 (KHTML, like Gecko) Chrome/87.0.4280.88 Safari/537.36" etag="84Umlstejh0qxJ2wnX8r" version="14.0.0" type="github">
  <diagram id="-_vcKVQJYOj5C2mMzbFM" name="Page-1">
    <mxGraphModel dx="1298" dy="799" grid="0" gridSize="10" guides="1" tooltips="1" connect="1" arrows="1" fold="1" page="1" pageScale="1" pageWidth="827" pageHeight="1169" background="#B3B3B3" math="0" shadow="0">
      <root>
        <mxCell id="0" />
        <mxCell id="1" parent="0" />
        <mxCell id="uBCqvBMHd7ceN_jNnNRX-1" value="" style="rounded=1;whiteSpace=wrap;html=1;strokeColor=#6c8ebf;fillColor=#dae8fc;" vertex="1" parent="1">
          <mxGeometry x="34" y="543" width="100" height="60" as="geometry" />
        </mxCell>
        <mxCell id="uBCqvBMHd7ceN_jNnNRX-2" value="" style="rounded=1;whiteSpace=wrap;html=1;strokeColor=#6c8ebf;fillColor=#dae8fc;" vertex="1" parent="1">
          <mxGeometry x="36" y="71" width="100" height="60" as="geometry" />
        </mxCell>
        <mxCell id="uBCqvBMHd7ceN_jNnNRX-3" value="" style="rounded=1;whiteSpace=wrap;html=1;strokeColor=#6c8ebf;fillColor=#dae8fc;" vertex="1" parent="1">
          <mxGeometry x="139" y="543" width="865" height="60" as="geometry" />
        </mxCell>
        <mxCell id="uBCqvBMHd7ceN_jNnNRX-4" value="" style="rounded=1;whiteSpace=wrap;html=1;strokeColor=#6c8ebf;fillColor=#dae8fc;" vertex="1" parent="1">
          <mxGeometry x="139" y="71" width="865" height="60" as="geometry" />
        </mxCell>
        <mxCell id="uBCqvBMHd7ceN_jNnNRX-5" value="/interfaces/interface[name=1/1/1/]/subinterfaces/subinterface[index=1]/state/counters/in-octets" style="text;html=1;strokeColor=none;fillColor=none;align=center;verticalAlign=middle;whiteSpace=wrap;labelBackgroundColor=none;labelBorderColor=none;fontColor=#0000FF;" vertex="1" parent="1">
          <mxGeometry x="319.5" y="103" width="569" height="20" as="geometry" />
        </mxCell>
        <mxCell id="uBCqvBMHd7ceN_jNnNRX-6" value="ports-stats" style="text;html=1;strokeColor=none;fillColor=none;align=center;verticalAlign=middle;whiteSpace=wrap;labelBackgroundColor=none;labelBorderColor=none;fontColor=#0000FF;" vertex="1" parent="1">
          <mxGeometry x="175" y="103" width="90" height="20" as="geometry" />
        </mxCell>
        <mxCell id="uBCqvBMHd7ceN_jNnNRX-7" value="123456789" style="text;html=1;strokeColor=none;fillColor=none;align=center;verticalAlign=middle;whiteSpace=wrap;labelBackgroundColor=none;labelBorderColor=none;fontColor=#0000FF;" vertex="1" parent="1">
          <mxGeometry x="888.5" y="103" width="90" height="20" as="geometry" />
        </mxCell>
        <mxCell id="uBCqvBMHd7ceN_jNnNRX-8" value="&lt;b&gt;subscription name&lt;/b&gt;" style="text;html=1;strokeColor=none;fillColor=none;align=center;verticalAlign=middle;whiteSpace=wrap;labelBackgroundColor=none;fontColor=#0000FF;" vertex="1" parent="1">
          <mxGeometry x="165" y="73" width="110" height="20" as="geometry" />
        </mxCell>
        <mxCell id="uBCqvBMHd7ceN_jNnNRX-9" value="&lt;b&gt;path&lt;span style=&quot;font-family: monospace; font-size: 0px;&quot;&gt;%3CmxGraphModel%3E%3Croot%3E%3CmxCell%20id%3D%220%22%2F%3E%3CmxCell%20id%3D%221%22%20parent%3D%220%22%2F%3E%3CmxCell%20id%3D%222%22%20value%3D%22subscription%20name%22%20style%3D%22text%3Bhtml%3D1%3BstrokeColor%3Dnone%3BfillColor%3Dnone%3Balign%3Dcenter%3BverticalAlign%3Dmiddle%3BwhiteSpace%3Dwrap%3Brounded%3D0%3BlabelBackgroundColor%3Dnone%3B%22%20vertex%3D%221%22%20parent%3D%221%22%3E%3CmxGeometry%20x%3D%22100%22%20y%3D%2210%22%20width%3D%22110%22%20height%3D%2220%22%20as%3D%22geometry%22%2F%3E%3C%2FmxCell%3E%3C%2Froot%3E%3C%2FmxGraphModel%3E&lt;/span&gt;&lt;/b&gt;" style="text;html=1;strokeColor=none;fillColor=none;align=center;verticalAlign=middle;whiteSpace=wrap;labelBackgroundColor=none;fontColor=#0000FF;" vertex="1" parent="1">
          <mxGeometry x="539" y="73" width="110" height="20" as="geometry" />
        </mxCell>
        <mxCell id="uBCqvBMHd7ceN_jNnNRX-10" value="&lt;b&gt;value&lt;/b&gt;" style="text;html=1;strokeColor=none;fillColor=none;align=center;verticalAlign=middle;whiteSpace=wrap;labelBackgroundColor=none;fontColor=#0000FF;" vertex="1" parent="1">
          <mxGeometry x="878.5" y="73" width="110" height="20" as="geometry" />
        </mxCell>
        <mxCell id="uBCqvBMHd7ceN_jNnNRX-11" value="/interfaces/interface/subinterfaces/subinterface/state/counters/in-octets" style="text;html=1;strokeColor=none;fillColor=none;align=center;verticalAlign=middle;whiteSpace=wrap;labelBackgroundColor=none;labelBorderColor=none;fontColor=#0000FF;" vertex="1" parent="1">
          <mxGeometry x="305" y="253" width="380" height="20" as="geometry" />
        </mxCell>
        <mxCell id="uBCqvBMHd7ceN_jNnNRX-12" value="" style="endArrow=classic;html=1;entryX=0.5;entryY=0;entryDx=0;entryDy=0;exitX=0.5;exitY=1;exitDx=0;exitDy=0;fontColor=#0000FF;strokeColor=#66B2FF;" edge="1" parent="1" source="uBCqvBMHd7ceN_jNnNRX-5" target="uBCqvBMHd7ceN_jNnNRX-23">
          <mxGeometry width="50" height="50" relative="1" as="geometry">
            <mxPoint x="585" y="133" as="sourcePoint" />
            <mxPoint x="585" y="193" as="targetPoint" />
          </mxGeometry>
        </mxCell>
        <mxCell id="uBCqvBMHd7ceN_jNnNRX-13" value="" style="endArrow=classic;html=1;exitX=0.5;exitY=1;exitDx=0;exitDy=0;entryX=0.5;entryY=0;entryDx=0;entryDy=0;fontColor=#0000FF;strokeColor=#66B2FF;" edge="1" parent="1" source="uBCqvBMHd7ceN_jNnNRX-6" target="uBCqvBMHd7ceN_jNnNRX-24">
          <mxGeometry width="50" height="50" relative="1" as="geometry">
            <mxPoint x="245" y="163" as="sourcePoint" />
            <mxPoint x="215" y="263" as="targetPoint" />
          </mxGeometry>
        </mxCell>
        <mxCell id="uBCqvBMHd7ceN_jNnNRX-14" value="" style="endArrow=classic;html=1;exitX=0.5;exitY=1;exitDx=0;exitDy=0;entryX=0.5;entryY=0;entryDx=0;entryDy=0;fontColor=#0000FF;strokeColor=#66B2FF;" edge="1" parent="1" source="uBCqvBMHd7ceN_jNnNRX-23" target="uBCqvBMHd7ceN_jNnNRX-11">
          <mxGeometry width="50" height="50" relative="1" as="geometry">
            <mxPoint x="445" y="223" as="sourcePoint" />
            <mxPoint x="500" y="254" as="targetPoint" />
          </mxGeometry>
        </mxCell>
        <mxCell id="uBCqvBMHd7ceN_jNnNRX-15" value="" style="endArrow=classic;html=1;exitX=0.5;exitY=1;exitDx=0;exitDy=0;labelBorderColor=#000000;fontColor=#0000FF;strokeColor=#66B2FF;" edge="1" parent="1" source="uBCqvBMHd7ceN_jNnNRX-7">
          <mxGeometry width="50" height="50" relative="1" as="geometry">
            <mxPoint x="933" y="133" as="sourcePoint" />
            <mxPoint x="934" y="543" as="targetPoint" />
          </mxGeometry>
        </mxCell>
        <mxCell id="uBCqvBMHd7ceN_jNnNRX-16" value="interfaces_interface_subinterfaces_subinterface_state_counters_in_octets" style="text;html=1;strokeColor=none;fillColor=none;align=center;verticalAlign=middle;whiteSpace=wrap;labelBackgroundColor=none;labelBorderColor=none;fontColor=#0000FF;" vertex="1" parent="1">
          <mxGeometry x="305" y="374" width="380" height="20" as="geometry" />
        </mxCell>
        <mxCell id="uBCqvBMHd7ceN_jNnNRX-17" value="interface_name=1/1/1, subinterface_index=1" style="text;html=1;strokeColor=none;fillColor=none;align=center;verticalAlign=middle;whiteSpace=wrap;labelBackgroundColor=none;labelBorderColor=none;fontColor=#0000FF;" vertex="1" parent="1">
          <mxGeometry x="636" y="563" width="280" height="20" as="geometry" />
        </mxCell>
        <mxCell id="uBCqvBMHd7ceN_jNnNRX-18" value="ports_stats" style="text;html=1;strokeColor=none;fillColor=none;align=center;verticalAlign=middle;whiteSpace=wrap;labelBackgroundColor=none;labelBorderColor=none;fontColor=#0000FF;" vertex="1" parent="1">
          <mxGeometry x="175" y="374" width="90" height="20" as="geometry" />
        </mxCell>
        <mxCell id="uBCqvBMHd7ceN_jNnNRX-19" value="" style="endArrow=classic;html=1;exitX=0.5;exitY=1;exitDx=0;exitDy=0;entryX=0.5;entryY=0;entryDx=0;entryDy=0;fontColor=#0000FF;strokeColor=#66B2FF;" edge="1" parent="1" source="uBCqvBMHd7ceN_jNnNRX-16" target="uBCqvBMHd7ceN_jNnNRX-29">
          <mxGeometry width="50" height="50" relative="1" as="geometry">
            <mxPoint x="405" y="404" as="sourcePoint" />
            <mxPoint x="435" y="433" as="targetPoint" />
          </mxGeometry>
        </mxCell>
        <mxCell id="uBCqvBMHd7ceN_jNnNRX-20" value="" style="endArrow=classic;html=1;exitX=0.5;exitY=1;exitDx=0;exitDy=0;entryX=0.5;entryY=0;entryDx=0;entryDy=0;fontColor=#0000FF;strokeColor=#66B2FF;" edge="1" parent="1" target="uBCqvBMHd7ceN_jNnNRX-29">
          <mxGeometry width="50" height="50" relative="1" as="geometry">
            <mxPoint x="220" y="394" as="sourcePoint" />
            <mxPoint x="335" y="433" as="targetPoint" />
          </mxGeometry>
        </mxCell>
        <mxCell id="uBCqvBMHd7ceN_jNnNRX-21" value="gnmic_ports_stats_interfaces_interface_subinterfaces_subinterface_state_counters_in_octets" style="text;html=1;strokeColor=none;fillColor=none;align=center;verticalAlign=middle;whiteSpace=wrap;labelBackgroundColor=none;labelBorderColor=none;fontColor=#0000FF;" vertex="1" parent="1">
          <mxGeometry x="186" y="563" width="420" height="20" as="geometry" />
        </mxCell>
        <mxCell id="uBCqvBMHd7ceN_jNnNRX-22" value="123456789" style="text;html=1;strokeColor=none;fillColor=none;align=center;verticalAlign=middle;whiteSpace=wrap;labelBackgroundColor=none;labelBorderColor=none;fontColor=#0000FF;" vertex="1" parent="1">
          <mxGeometry x="888.5" y="563" width="90" height="20" as="geometry" />
        </mxCell>
        <mxCell id="uBCqvBMHd7ceN_jNnNRX-23" value="&lt;span style=&quot;font-family: &amp;#34;helvetica&amp;#34; ; font-size: 12px ; font-style: italic ; font-weight: 400 ; letter-spacing: normal ; text-align: center ; text-indent: 0px ; text-transform: none ; word-spacing: 0px ; display: inline ; float: none&quot;&gt;&lt;font color=&quot;#0000ff&quot;&gt;strip keys from path&lt;/font&gt;&lt;/span&gt;" style="whiteSpace=wrap;html=1;labelBackgroundColor=none;labelBorderColor=none;strokeColor=#6c8ebf;fillColor=#dae8fc;" vertex="1" parent="1">
          <mxGeometry x="429" y="168.5" width="132" height="20" as="geometry" />
        </mxCell>
        <mxCell id="uBCqvBMHd7ceN_jNnNRX-24" value="&lt;span style=&quot;font-style: italic&quot;&gt;&lt;font color=&quot;#0000ff&quot;&gt;replace non alphanumeric chars with &quot;_&quot;&lt;/font&gt;&lt;/span&gt;" style="whiteSpace=wrap;html=1;labelBackgroundColor=none;labelBorderColor=none;strokeColor=#6c8ebf;fillColor=#dae8fc;" vertex="1" parent="1">
          <mxGeometry x="134" y="163" width="173" height="31" as="geometry" />
        </mxCell>
        <mxCell id="uBCqvBMHd7ceN_jNnNRX-25" value="" style="endArrow=classic;html=1;exitX=0.5;exitY=1;exitDx=0;exitDy=0;entryX=0.5;entryY=0;entryDx=0;entryDy=0;fontColor=#0000FF;strokeColor=#66B2FF;" edge="1" parent="1" source="uBCqvBMHd7ceN_jNnNRX-11" target="uBCqvBMHd7ceN_jNnNRX-26">
          <mxGeometry width="50" height="50" relative="1" as="geometry">
            <mxPoint x="245" y="153" as="sourcePoint" />
            <mxPoint x="225" y="273" as="targetPoint" />
          </mxGeometry>
        </mxCell>
        <mxCell id="uBCqvBMHd7ceN_jNnNRX-26" value="&lt;span style=&quot;font-style: italic&quot;&gt;&lt;font color=&quot;#0000ff&quot;&gt;replace non alphanumeric chars with &quot;_&quot;&lt;/font&gt;&lt;/span&gt;" style="whiteSpace=wrap;html=1;labelBackgroundColor=none;strokeColor=#6c8ebf;fillColor=#dae8fc;" vertex="1" parent="1">
          <mxGeometry x="410" y="302" width="170" height="31" as="geometry" />
        </mxCell>
        <mxCell id="uBCqvBMHd7ceN_jNnNRX-27" value="" style="endArrow=classic;html=1;exitX=0.5;exitY=1;exitDx=0;exitDy=0;entryX=0.5;entryY=0;entryDx=0;entryDy=0;fontColor=#0000FF;strokeColor=#66B2FF;" edge="1" parent="1" source="uBCqvBMHd7ceN_jNnNRX-24" target="uBCqvBMHd7ceN_jNnNRX-18">
          <mxGeometry width="50" height="50" relative="1" as="geometry">
            <mxPoint x="255" y="163" as="sourcePoint" />
            <mxPoint x="235" y="283" as="targetPoint" />
          </mxGeometry>
        </mxCell>
        <mxCell id="uBCqvBMHd7ceN_jNnNRX-28" value="" style="endArrow=classic;html=1;exitX=0.5;exitY=1;exitDx=0;exitDy=0;entryX=0.5;entryY=0;entryDx=0;entryDy=0;fontColor=#0000FF;strokeColor=#66B2FF;" edge="1" parent="1" source="uBCqvBMHd7ceN_jNnNRX-26" target="uBCqvBMHd7ceN_jNnNRX-16">
          <mxGeometry width="50" height="50" relative="1" as="geometry">
            <mxPoint x="445" y="333" as="sourcePoint" />
            <mxPoint x="445" y="363" as="targetPoint" />
          </mxGeometry>
        </mxCell>
        <mxCell id="uBCqvBMHd7ceN_jNnNRX-29" value="&lt;span style=&quot;font-style: italic&quot;&gt;&lt;font color=&quot;#0000ff&quot;&gt;join with &quot;_&quot;&lt;/font&gt;&lt;/span&gt;" style="whiteSpace=wrap;html=1;labelBackgroundColor=none;strokeColor=#6c8ebf;fillColor=#dae8fc;" vertex="1" parent="1">
          <mxGeometry x="275" y="453" width="160" height="20" as="geometry" />
        </mxCell>
        <mxCell id="uBCqvBMHd7ceN_jNnNRX-30" value="" style="endArrow=classic;html=1;exitX=0.5;exitY=1;exitDx=0;exitDy=0;entryX=0.5;entryY=0;entryDx=0;entryDy=0;fontColor=#0000FF;strokeColor=#66B2FF;" edge="1" parent="1" source="uBCqvBMHd7ceN_jNnNRX-29" target="uBCqvBMHd7ceN_jNnNRX-31">
          <mxGeometry width="50" height="50" relative="1" as="geometry">
            <mxPoint x="403" y="473" as="sourcePoint" />
            <mxPoint x="356" y="533" as="targetPoint" />
            <Array as="points" />
          </mxGeometry>
        </mxCell>
        <mxCell id="uBCqvBMHd7ceN_jNnNRX-31" value="&lt;b&gt;metric name&lt;/b&gt;" style="text;html=1;strokeColor=none;fillColor=none;align=center;verticalAlign=middle;whiteSpace=wrap;labelBackgroundColor=none;fontColor=#0000FF;" vertex="1" parent="1">
          <mxGeometry x="300" y="543" width="110" height="20" as="geometry" />
        </mxCell>
        <mxCell id="uBCqvBMHd7ceN_jNnNRX-32" value="&lt;b&gt;labels&lt;/b&gt;" style="text;html=1;strokeColor=none;fillColor=none;align=center;verticalAlign=middle;whiteSpace=wrap;labelBackgroundColor=none;fontColor=#0000FF;" vertex="1" parent="1">
          <mxGeometry x="710" y="543" width="110" height="20" as="geometry" />
        </mxCell>
        <mxCell id="uBCqvBMHd7ceN_jNnNRX-33" value="&lt;b&gt;value&lt;/b&gt;" style="text;html=1;strokeColor=none;fillColor=none;align=center;verticalAlign=middle;whiteSpace=wrap;labelBackgroundColor=none;fontColor=#0000FF;" vertex="1" parent="1">
          <mxGeometry x="878.5" y="543" width="110" height="20" as="geometry" />
        </mxCell>
        <mxCell id="uBCqvBMHd7ceN_jNnNRX-34" value="&lt;b&gt;gnmi update&lt;/b&gt;" style="text;html=1;strokeColor=none;fillColor=none;align=center;verticalAlign=middle;whiteSpace=wrap;labelBackgroundColor=none;fontColor=#0000FF;" vertex="1" parent="1">
          <mxGeometry x="31" y="91" width="110" height="20" as="geometry" />
        </mxCell>
        <mxCell id="uBCqvBMHd7ceN_jNnNRX-35" value="&lt;b&gt;prometheus metric&lt;/b&gt;" style="text;html=1;strokeColor=none;fillColor=none;align=center;verticalAlign=middle;whiteSpace=wrap;labelBackgroundColor=none;fontColor=#0000FF;" vertex="1" parent="1">
          <mxGeometry x="29" y="563" width="110" height="20" as="geometry" />
        </mxCell>
        <mxCell id="uBCqvBMHd7ceN_jNnNRX-36" value="" style="endArrow=classic;html=1;fontColor=#0000FF;strokeColor=#66B2FF;" edge="1" parent="1">
          <mxGeometry width="50" height="50" relative="1" as="geometry">
            <mxPoint x="86" y="133" as="sourcePoint" />
            <mxPoint x="86" y="543" as="targetPoint" />
          </mxGeometry>
        </mxCell>
        <mxCell id="uBCqvBMHd7ceN_jNnNRX-37" value="gnmic" style="text;html=1;strokeColor=none;fillColor=none;align=center;verticalAlign=middle;whiteSpace=wrap;labelBackgroundColor=none;labelBorderColor=none;fontColor=#0000FF;" vertex="1" parent="1">
          <mxGeometry x="96" y="374" width="90" height="20" as="geometry" />
        </mxCell>
        <mxCell id="uBCqvBMHd7ceN_jNnNRX-38" value="" style="endArrow=classic;html=1;exitX=0.5;exitY=1;exitDx=0;exitDy=0;entryX=0.5;entryY=0;entryDx=0;entryDy=0;fontColor=#0000FF;strokeColor=#66B2FF;" edge="1" parent="1" source="uBCqvBMHd7ceN_jNnNRX-37" target="uBCqvBMHd7ceN_jNnNRX-29">
          <mxGeometry width="50" height="50" relative="1" as="geometry">
            <mxPoint x="230" y="403.9999999999999" as="sourcePoint" />
            <mxPoint x="356" y="452" as="targetPoint" />
          </mxGeometry>
        </mxCell>
        <mxCell id="uBCqvBMHd7ceN_jNnNRX-39" value="&lt;span style=&quot;font-family: &amp;#34;helvetica&amp;#34; ; font-size: 12px ; font-style: italic ; font-weight: 400 ; letter-spacing: normal ; text-align: center ; text-indent: 0px ; text-transform: none ; word-spacing: 0px ; display: inline ; float: none&quot;&gt;&lt;font color=&quot;#0000ff&quot;&gt;generate labels from path&lt;br&gt;by joining the path element name and the key name with &quot;_&quot;&lt;/font&gt;&lt;br&gt;&lt;/span&gt;" style="whiteSpace=wrap;html=1;labelBackgroundColor=none;labelBorderColor=none;strokeColor=#6c8ebf;fillColor=#dae8fc;" vertex="1" parent="1">
          <mxGeometry x="660" y="295.75" width="210" height="43.5" as="geometry" />
        </mxCell>
        <mxCell id="uBCqvBMHd7ceN_jNnNRX-40" value="" style="endArrow=classic;html=1;entryX=0.5;entryY=0;entryDx=0;entryDy=0;fontColor=#0000FF;strokeColor=#66B2FF;" edge="1" parent="1" target="uBCqvBMHd7ceN_jNnNRX-39">
          <mxGeometry width="50" height="50" relative="1" as="geometry">
            <mxPoint x="605" y="124" as="sourcePoint" />
            <mxPoint x="505" y="178.5" as="targetPoint" />
            <Array as="points">
              <mxPoint x="765" y="184" />
            </Array>
          </mxGeometry>
        </mxCell>
        <mxCell id="uBCqvBMHd7ceN_jNnNRX-41" value="" style="endArrow=classic;html=1;entryX=0.5;entryY=0;entryDx=0;entryDy=0;fontColor=#0000FF;strokeColor=#66B2FF;" edge="1" parent="1" source="uBCqvBMHd7ceN_jNnNRX-39" target="uBCqvBMHd7ceN_jNnNRX-32">
          <mxGeometry width="50" height="50" relative="1" as="geometry">
            <mxPoint x="764.5" y="194" as="sourcePoint" />
            <mxPoint x="764.5" y="258.5" as="targetPoint" />
          </mxGeometry>
        </mxCell>
      </root>
    </mxGraphModel>
  </diagram>
</mxfile>
